Patient4_TMGait_0pt7_01_left_33_EMG.mot
version=1
nRows=33
nColumns=33
inDegrees=no
endheader
time	1LAddLong	2LGlutMax	3LGlutMed	4LIliopsoas	5LSemiMemb	6LBicFemLong	7LRecFem	8LVastMed	9LVastLat	10LGasMed	11LTibAnt	12lTibPost	13LPeroneusLong	14LSol	15LExtDigLong	16LFlexDigLong	17RAddLong	18RGlutMax	19RGlutMed	20RIliopsoas	21RSemiMemb	22RBicFemLong	23RRecFem	24RVastMed	25RVastLat	26RGasMed	27RTibAnt	28RTibPost	29RPeroneusLong	30RSol	31RExtDigLong	32RFlexDigLong
39.313	-0.000153	0.39063	0.062561	0.007629	-0.011292	-0.03006	-0.023041	0.001373	0.08194	0.022125	0.012207	-0.000763	0.041504	-0.050201	0.005951	-0.006561	-0.004578	-0.15732	-0.087433	-0.003662	0.003815	-0.1831	0.30624	-0.035248	0.08194	0.002289	-0.13947	-0.000305	0.26749	0.2887	-0.002899	-0.003967
39.314	0.010529	0.36102	0.03067	-0.001526	-0.004578	0.00061	-0.00824	0.001831	0.075989	0.010986	0.028229	0.005188	0.081177	-0.078583	0.016174	-0.001984	-0.022583	-0.20111	-0.025635	0.159	0.033569	0.028687	0.19699	0.112	-0.017548	0.018463	-0.042572	0.000305	0.26154	0.37918	-0.000916	-0.00473
39.315	0.008698	0.28763	0.032349	0.013123	0.000305	0.016479	-0.029907	-0.00061	0.063782	-0.008392	0.021515	0.004883	0.10956	-0.03067	0.016479	-0.007477	-0.008392	-0.16617	-0.11704	0.37705	0.035553	0.28229	0.19333	-0.031433	-0.015717	0.048218	-0.057373	0	0.38803	0.32303	-0.002594	0.001831
39.316	0.0177	0.31082	-0.022278	0.020752	0.0383	0.04303	-0.024567	0.00351	0.055237	-0.029602	0.00351	0.000153	0.091248	-0.019226	0.00351	-0.00061	-0.006561	-0.19043	-0.068817	0.38269	0.049133	-0.04364	0.067596	-0.22858	0.084686	0.03067	-0.008545	0.00473	0.77301	0.14969	-0.001526	0.003662
39.317	0.011597	0.31372	-0.016327	0.014648	0.057526	0.019989	-0.020142	0.000458	0.063019	-0.023956	-0.028839	0.009766	0.056763	0.014191	-0.000305	-0.00473	0.009308	-0.17563	0.052948	0.20966	0.034332	-0.03891	-0.03067	-0.19852	0.16464	-0.072632	0.076752	0.008087	0.54138	0.16922	-0.00412	0.007019
39.318	0.017853	0.30487	-0.015564	0.018768	0.001373	-0.005493	-0.016022	-0.012054	0.063629	-0.016785	-0.057831	-0.005188	0.029449	0.049133	0.011139	0.002441	-0.013885	-0.18417	-0.086975	0.14938	0.030365	0.34637	-0.13046	0.09079	0.29785	-0.13489	0.12116	-0.002136	0.2919	-0.15457	-0.001221	0.008087
39.319	0.016174	0.31265	-0.025177	0.027924	-0.006256	-0.046692	-0.029449	-0.000458	0.058899	-0.016937	-0.04715	0.001221	0.011292	0.046692	0.004272	0.00473	-0.025177	-0.17425	-0.13062	0.069122	0.017242	0.2301	-0.019531	0.044861	0.28107	-0.060577	0.10147	-0.079956	0.23254	-0.47546	-0.001373	0.010071
39.32	0.007477	0.29327	-0.028687	0.039673	-0.017548	-0.037689	-0.039825	-0.00061	0.057983	-0.054169	-0.043182	0.000458	0.12375	-0.000916	-0.063477	-0.000763	0.005341	-0.16769	0.34164	0.046997	0.00351	0.086365	0.11215	-0.14969	0.14557	-0.00412	0.16357	-0.002289	0.22171	0.065613	-0.005341	-0.004883
39.321	-0.084686	0.26001	-0.048065	0.037842	-0.028992	-0.011139	-0.030975	0.002594	0.054779	-0.0383	0.035706	-0.001068	0.1181	-0.072327	0.010986	0.004272	0.010071	-0.11704	0.67337	-0.030212	0.001984	0.032043	0.16586	-0.17929	0.11734	0.002747	0.24963	0.012054	0.053406	0.54275	-0.007324	-0.010376
39.322	0.065765	0.25207	-0.049438	0.027924	-0.040741	-0.003815	-0.036774	0.002136	0.039978	-0.016785	0.39429	0.005341	0.029297	-0.15793	0.13534	-0.005646	0.001526	-0.19852	0.35843	-0.065155	-0.001221	0.034332	-0.012817	-0.014801	0.14481	-0.015564	0.37628	0.012207	-0.25696	0.48019	-0.007477	-0.01297
39.323	-0.023651	0.2298	-0.029144	0.023651	-0.069733	-0.011902	-0.031433	-0.000763	0.03418	-0.035706	0.54245	0.007629	0.000305	-0.11932	0.093536	-0.009003	0.015717	-0.25803	-0.18784	-0.15472	-0.002899	-0.020294	0.054474	0.014038	0.11215	-0.018616	0.39673	0.056915	-0.53513	0.38422	-0.006256	-0.013275
39.324	0.015106	0.17425	-0.039825	0.016479	-0.056458	-0.01358	-0.01236	0.004425	0.029602	-0.047455	0.39139	-0.004425	-0.001221	-0.071716	0.3125	-0.003662	0.013123	-0.16205	-0.22201	-0.1416	-0.019684	0.010529	0.37918	-0.12085	-0.019531	-0.016479	0.36987	0.026855	-0.92545	0.18555	-0.003204	-0.011292
39.325	0.002899	0.18738	-0.052643	0.011902	0.043793	-0.018921	-0.029144	0.002899	0.022583	-0.045624	-0.0177	0.003052	0.055542	-0.022888	0.11047	-0.01358	0.016479	-0.23041	-0.3569	-0.029297	-0.038605	-0.011139	0.25589	-0.29251	-0.10437	-0.002136	0.30762	-0.001068	-0.11673	-0.080719	-0.006561	-0.010223
39.326	0	0.19943	-0.04715	0.014648	0.027924	0.011444	-0.02594	0.000763	0.039825	-0.055237	-0.25085	0.005646	0.11169	-0.010834	0.0354	-0.00412	-0.009766	-0.24155	-0.75119	0.13412	-0.018768	-0.034332	-0.040894	-0.29587	-0.1532	0.004883	0.32013	-0.014191	0.13931	-0.1416	-0.005188	-0.007172
39.327	0.008087	0.2005	-0.021973	0.014954	0.019379	0.029907	-0.029755	0.002289	0.029602	-0.051422	-0.4451	0.005493	0.083466	-0.021667	-0.10239	-0.010986	-0.022736	-0.20721	-0.14999	0.18127	0.002136	-0.022125	-0.39322	-0.12405	-0.18814	0.004578	0.089417	-0.009918	0.81787	-0.13306	-0.006409	-0.004272
39.328	-0.001373	0.177	0.032501	0.019531	0.048065	0.030212	0.003357	-0.001984	0.039825	-0.040741	-0.32364	0.006409	0.091553	-0.028839	-0.24841	-0.00946	-0.022278	-0.1683	0.092926	0.074921	0.024567	-0.038757	-0.53421	0.046692	-0.061951	0.008392	-0.71945	0.001526	0.71396	-0.19806	-0.002747	-0.009613
39.329	0.00412	0.14664	0.04425	0.025024	0.02182	0.040436	-0.029907	0.004883	0.036469	-0.028076	-0.15884	0.005035	0.070038	-0.040283	-0.22598	-0.00473	-0.018768	-0.1709	0.36514	-0.048065	0.010376	-0.072479	-0.60104	0.17105	0.011749	0.008698	-0.60242	0.008545	-0.17364	-0.30991	-0.004578	-0.005798
39.33	0.000305	0.098114	0.046844	0.007629	-0.022888	0.026245	-0.026398	0.007019	0.026703	-0.016479	-0.049744	0.003052	0.058594	-0.08667	-0.13382	-0.00885	0.017853	-0.19745	0.50369	-0.14221	-0.037079	-0.1033	-0.060883	0.20813	-0.019226	0.015106	-0.3569	0.00824	-1.0756	-0.37445	-0.005035	-0.000458
39.331	-0.00885	0.13596	0.022278	0.018463	-0.013123	0.003967	-0.017395	0.000305	0.042877	-0.02655	-0.049591	0.004425	0.072327	-0.091553	-0.04303	-0.000305	0.023804	-0.17014	0.2417	-0.16052	-0.088196	-0.11826	0.2565	0.23407	-0.011902	-0.001373	-0.092926	0.00824	-0.3009	-0.2063	-0.003967	-0.012817
39.332	0.045319	0.10544	0.005798	0.031891	-0.03006	-0.038147	-0.037231	0.004272	0.045776	-0.047607	0.058441	0.003204	0.090332	-0.1384	0.56015	0.010986	0.011139	-0.14847	0.043182	0.037231	-0.059509	-0.086212	0.065155	0.13962	0.050507	-0.011139	0.023499	0.001526	-0.074921	-0.021362	-0.001984	-0.009918
39.333	0.029907	0.11353	-0.10666	0.029602	-0.000763	-0.052338	-0.052338	-0.001221	0.043793	-0.029602	0.056458	0.005493	0.048523	-0.19928	-0.18631	0.006409	0.010223	-0.11032	-0.1181	0.075073	-0.027313	-0.081787	-0.20248	-0.036926	0.048828	-0.015869	0.34607	-0.001373	-0.3064	-0.17899	-0.005798	-0.012512
39.334	0.005646	0.10712	-0.16357	0.018616	-0.11261	-0.021515	-0.053711	-0.005493	0.052338	-0.042572	-0.094452	-0.004578	0.042419	-0.11902	-0.09964	0.008545	0.011902	-0.13016	-0.36758	0.053558	-0.037689	-0.10895	-0.18616	-0.037384	0.034485	-0.012817	0.53284	-0.007477	-0.013275	-0.60821	-0.003967	-0.014191
39.335	-0.002747	0.076904	-0.13901	0.01236	-0.15411	-0.040436	-0.059662	-0.002289	0.043945	-0.070648	-0.17288	0.007019	0.11108	-0.049744	-0.17181	0.006409	0.021515	-0.17273	-0.39993	0.15595	-0.037231	-0.13321	-0.045776	-0.007629	0.002899	-0.00473	0.22858	-0.005188	0.27145	-0.66391	-0.003662	-0.00824
39.336	0.008698	0.085449	-0.061951	0.013123	-0.01236	-0.056458	-0.038757	0.001068	0.056152	-0.077209	-0.24155	0.007782	0.17227	-0.023346	-0.068512	0.009613	0.011444	-0.15152	-0.14038	0.12039	-0.014954	-0.1416	0.056458	-0.065613	-0.036316	0.003357	-0.079346	-0.045319	-0.39047	-0.26001	-0.007324	-0.006714
39.337	0.009155	0.070648	0.077209	0.01709	0.083771	-0.059204	-0.047913	0.00473	0.050049	-0.051727	-0.14191	-0.000305	0.089264	-0.032349	0.20935	0.012817	0.014648	-0.10391	-0.041656	0.074921	-0.035095	-0.099182	0.096436	-0.1471	-0.07309	-0.003052	-0.57541	-0.22614	-0.56976	0.23315	-0.00473	-0.012054
39.338	0.009155	0.045471	0.041809	0.006104	0.049744	-0.09903	-0.051727	0.001373	0.053406	-0.020447	0.032349	0.003204	-0.015411	0.002136	0.088806	0.009918	0.007477	-0.086823	0.090027	0.12924	-0.11566	-0.069275	0.13153	-0.062866	-0.044556	0.007477	-0.59967	0.039673	-0.57999	0.047302	-0.001373	-0.011139
39.339	0.00824	0.037079	0.024872	0.001221	0.044403	-0.10773	-0.050507	0.004883	0.06012	-0.028992	0.27008	-0.00473	-0.034943	0.014038	-0.18951	0.001068	-0.005646	-0.068359	-0.50339	0.052643	-0.080109	0.014648	0.13214	0.045624	-0.018921	0.018616	-0.33951	0.29831	-0.37552	-0.042419	-0.002441	-0.016937
39.34	0.014496	0.019836	-0.030365	0.019379	0.025177	-0.09903	-0.051727	-0.000305	0.061646	-0.036163	0.14938	-0.008087	-0.005035	-0.023804	-0.036469	0.006866	-0.013885	-0.028687	-0.54474	-0.1712	0.087128	0.034637	0.14099	0.019684	0.066376	0.041199	0.1297	0.059052	-0.12283	-0.12726	-0.007019	-0.016785
39.341	0.011139	-0.015411	-0.045624	0.02243	0.018158	-0.11963	-0.071259	-0.000305	0.070648	-0.044556	0.040741	0.002594	0.02121	-0.094299	-0.055542	0.013123	-0.025177	-0.019989	-0.21271	-0.20615	0.042725	0.067444	0.11307	0.1062	0.14877	0.04425	0.37003	0.005798	1.3423	-0.11093	-0.002899	-0.018158
39.342	0.015869	-0.051727	-0.00412	0.015411	0.029449	-0.099487	-0.083466	0.001068	0.06546	-0.049438	0.068817	0.009613	0.026245	-0.18082	-0.21164	0.010986	-0.006409	-0.061951	0.4364	-0.067291	-0.021362	0.08255	0.22079	0.045624	0.12589	0.02243	0.032806	-0.001678	1.4641	-0.20844	-0.003967	-0.011902
39.343	0.015106	-0.023651	-0.004272	0.016479	0.005646	-0.07843	-0.083466	-0.001831	0.059204	-0.04303	0.071869	-0.002899	0.039368	-0.21469	-0.18707	0.016937	-0.011597	-0.046539	0.27222	0.12192	-0.031128	0.051727	0.27908	0.024872	0.043182	-0.01358	-0.096436	-0.00946	-0.011139	-0.22034	-0.010681	-0.007477
39.344	0.018005	-0.050812	-0.025177	0.018768	0.004578	-0.049286	-0.079956	0.001984	0.033569	-0.017395	0.043182	0.009613	0.008545	-0.24292	-0.15915	0.013428	-0.009003	-0.16739	0.3331	0.15915	-0.004883	0.030823	0.25894	0.030212	-0.078278	-0.009003	-0.006409	-0.030518	-0.71732	0.025787	-0.00061	-0.007782
39.345	0.007935	-0.029755	-0.015564	0.013428	0.039825	-0.016022	-0.072327	0.005035	0.033722	-0.033875	0.027466	-0.000305	0	-0.24262	-0.06012	0.011749	-0.01358	-0.11978	0.13519	0.073547	0.061646	-0.045471	0.14297	0.021362	-0.087433	-0.020599	0.022888	-0.093079	-0.61279	-0.085449	-0.007935	-0.00885
